<?xml version="1.0" encoding="UTF-8"?>
<svg width="200" height="200" viewBox="0 0 200 200" xmlns="http://www.w3.org/2000/svg">
  <!-- Gear outer ring -->
  <path d="M100 20 L110 30 L120 25 L130 35 L125 45 L135 50 L130 60 L140 65 L135 75 L145 80 L140 90 L150 95 L145 105 L155 110 L150 120 L160 125 L155 135 L165 140 L160 150 L170 155 L165 165 L175 170 L170 180 L180 175 L175 185 L185 180 L180 190 L190 185 L185 195 L195 190 L190 200 L180 195 L185 185 L175 190 L170 180 L165 185 L155 175 L160 165 L150 170 L145 160 L135 165 L140 155 L130 160 L125 150 L115 155 L120 145 L110 150 L105 140 L95 145 L100 135 L90 140 L85 130 L75 135 L80 125 L70 130 L65 120 L55 125 L60 115 L50 120 L45 110 L35 115 L40 105 L30 110 L25 100 L15 105 L20 95 L10 100 L5 90 L15 85 L10 80 L20 75 L15 70 L25 65 L20 60 L30 55 L25 50 L35 45 L30 40 L40 35 L35 30 L45 25 L40 20 L50 15 L45 10 L55 5 L50 0 L60 5 L55 15 L65 10 L70 20 L80 15 L75 25 L85 20 L90 30 L100 25 Z" fill="white"/>
  
  <!-- Inner circle -->
  <circle cx="100" cy="100" r="60" fill="none" stroke="white" stroke-width="3"/>
  
  <!-- Arrow pointing up -->
  <path d="M100 60 L85 75 L92 75 L92 90 L108 90 L108 75 L115 75 Z" fill="white"/>
  
  <!-- Arrow pointing up-right -->
  <path d="M120 80 L105 95 L112 102 L127 87 Z" fill="white"/>
  
  <!-- Curved lines -->
  <path d="M70 130 Q85 120 100 130 Q115 140 130 130" fill="none" stroke="white" stroke-width="3"/>
  <path d="M75 140 Q90 130 105 140" fill="none" stroke="white" stroke-width="2"/>
  
  <!-- Small circles -->
  <circle cx="85" cy="85" r="3" fill="white"/>
  <circle cx="115" cy="85" r="3" fill="white"/>
  <circle cx="100" cy="120" r="3" fill="white"/>
  
  <!-- Text -->
  <text x="100" y="170" text-anchor="middle" font-family="Arial, sans-serif" font-size="16" font-weight="bold" fill="white">PERFORMANCE</text>
  <text x="100" y="185" text-anchor="middle" font-family="Arial, sans-serif" font-size="12" fill="white">OPTIMIZER</text>
</svg>